<svg width="80" height="80" viewBox="0 0 80 80" fill="none" xmlns="http://www.w3.org/2000/svg">
<path d="M76.8293 40.0179C76.8996 22.965 65.0764 8.02094 48.4594 4.1127C28.0747 -0.681218 7.73213 12.4634 3.82389 33.0309C3.40214 35.2802 3.33185 37.5858 3.13503 39.8773C3.05068 40.9176 2.38993 41.6346 1.47613 41.5643C0.590454 41.494 0 40.8052 0 39.8211C0 35.3505 0.71698 30.9924 2.24935 26.803C6.24194 15.8093 13.5945 7.92254 24.2929 3.22702C38.7169 -3.09927 56.2056 0.0779363 67.5226 10.9873C74.2988 17.5104 78.4319 25.4253 79.6269 34.746C81.103 46.302 78.0805 56.6912 70.6436 65.6605C64.3173 73.2801 56.1493 77.8351 46.3928 79.4658C44.3684 79.8032 42.2877 79.8595 40.2352 79.986C39.1808 80.0563 38.4357 79.3674 38.4357 78.4536C38.4217 77.5258 39.1246 76.8932 40.2071 76.8791C47.897 76.7666 54.9544 74.6016 61.2104 70.131C70.039 63.8188 75.1282 55.201 76.5903 44.4463C76.7168 43.5466 76.773 42.6328 76.8293 41.719C76.8574 41.1426 76.8293 40.5802 76.8293 40.0179Z" fill="#D5362B"/>
<path d="M38.2949 7.37402C58.7217 7.38808 73.5534 23.0632 72.5552 41.8172C71.6414 58.9122 57.3862 72.5207 40.2912 72.6051C39.2227 72.6051 38.4776 72.0006 38.4495 71.0868C38.4073 70.1449 39.1103 69.4982 40.249 69.456C40.3193 69.456 40.3896 69.456 40.4599 69.4419C44.1713 69.3717 47.7843 68.725 51.2005 67.2348C61.0836 62.9188 67.2271 55.4819 69.0406 44.8538C71.3462 31.3155 64.4014 18.6629 51.9175 12.9833C41.1065 8.06289 27.7229 10.5512 19.2738 19.0425C14.8032 23.5271 12.0197 28.8834 10.9653 35.1253C10.8106 36.0673 10.3467 36.6015 9.61568 36.7139C8.43478 36.8826 7.64751 35.9829 7.85838 34.6614C8.53319 30.5704 9.88279 26.7184 12.0759 23.2038C18.5006 12.913 27.9338 7.82389 38.2949 7.37402Z" fill="#D5362B"/>
<path d="M18.8941 80.0001C13.9315 80.0001 8.96885 80.0001 4.00622 80.0001C2.57226 80.0001 2.00993 79.4519 2.02399 77.9898C2.03804 76.0497 1.86934 74.0956 2.43168 72.1977C3.76723 67.685 6.95849 65.2669 11.3869 64.2266C11.7946 64.1282 12.2163 64.0298 12.6381 64.0157C17.4742 63.8751 22.3525 63.3269 27.1183 64.3953C32.6573 65.6184 35.9188 69.9203 35.9329 75.6139C35.9329 76.4574 35.947 77.3009 35.9329 78.1444C35.9188 79.3956 35.3284 80.0001 34.0772 80.0001C29.0162 80.0001 23.9551 80.0001 18.8941 80.0001ZM5.24336 76.8229C14.4376 76.8229 23.5755 76.8229 32.7698 76.8229C32.7698 76.0778 32.8119 75.3749 32.7698 74.672C32.587 71.8603 31.2655 69.7516 28.7912 68.3738C27.2307 67.5022 25.5297 67.0523 23.7583 67.0242C20.7076 66.982 17.671 66.9961 14.6203 67.0102C13.9455 67.0102 13.2707 67.0805 12.5959 67.1929C7.52083 67.9521 4.54044 71.8463 5.24336 76.8229Z" fill="#D5362B"/>
<path d="M18.9365 61.8928C11.9354 61.8365 6.34015 56.2132 6.36827 49.2543C6.41044 42.211 12.076 36.6439 19.1474 36.686C26.0641 36.7423 31.6453 42.4781 31.575 49.4651C31.5047 56.3678 25.8111 61.949 18.9365 61.8928ZM18.9506 58.7718C24.1943 58.7999 28.4119 54.5965 28.44 49.3386C28.4681 44.1511 24.2365 39.8351 19.0771 39.8351C13.7911 39.8211 9.55953 43.9823 9.51736 49.2121C9.47518 54.498 13.6646 58.7437 18.9506 58.7718Z" fill="#D5362B"/>
<path d="M41.5706 28.3919C41.5706 31.7378 41.5846 35.0837 41.5565 38.4436C41.5565 38.9216 41.6971 39.1887 42.1329 39.4277C44.6353 40.8476 47.1237 42.2956 49.626 43.7436C49.8088 43.8421 49.9916 43.9545 50.1603 44.0811C50.821 44.6012 50.9616 45.4588 50.5398 46.1617C50.1322 46.8224 49.2886 47.0896 48.5717 46.724C47.6719 46.2601 46.8144 45.7399 45.9427 45.2338C43.7918 43.9967 41.6549 42.7455 39.4899 41.5224C38.7589 41.1147 38.4355 40.5383 38.4355 39.6948C38.4496 32.5813 38.4355 25.4536 38.4496 18.3401C38.4496 17.2013 39.0541 16.4703 39.996 16.4563C40.9661 16.4422 41.5987 17.1873 41.5987 18.3541C41.5706 21.7 41.5706 25.0459 41.5706 28.3919Z" fill="#D5362B"/>
</svg>
