<svg width="92" height="80" viewBox="0 0 92 80" fill="none" xmlns="http://www.w3.org/2000/svg">
<path d="M30.5954 36.8658C30.5954 36.4089 30.5954 36.0367 30.5954 35.6813C30.5954 26.425 30.5954 17.1855 30.5954 7.92922C30.5954 6.457 30.7307 6.27086 32.0676 5.74628C36.8396 3.86794 41.5947 1.97267 46.3836 0.111254C46.8066 -0.0579662 47.4158 -0.0241222 47.8389 0.145098C53.5416 2.49726 59.2274 4.9171 64.9132 7.28618C65.7931 7.65846 66.1654 8.19997 66.1485 9.1476C66.1316 15.0195 66.1485 20.8745 66.1147 26.7465C66.1147 27.5418 66.3177 27.8295 67.1469 27.7956C68.7206 27.7279 70.3113 27.7618 71.8851 27.7787C72.2573 27.7787 72.6804 27.8633 73.0019 28.0495C77.2663 30.5201 81.5137 33.0245 85.7949 35.4782C86.7764 36.0367 87.1656 36.6966 87.1656 37.8304C87.1318 50.6065 87.1487 63.3826 87.1487 76.1587C87.1487 77.3432 87.1487 77.3432 88.3333 77.3432C88.7901 77.3432 89.2301 77.3263 89.687 77.3602C90.5331 77.4279 91.0577 77.9694 91.0577 78.6801C91.0408 79.3908 90.4993 79.9323 89.6362 79.9323C87.9779 79.9661 86.3195 79.9492 84.6442 79.9492C78.0447 79.9662 71.4451 79.9831 64.8624 80C64.0502 80 63.221 79.9492 62.4087 79.9492C52.8816 79.9492 43.3546 79.9492 33.8275 79.9492C24.808 79.9492 15.7886 79.9492 6.76918 79.9492C5.04313 79.9492 3.33401 79.9662 1.60796 79.9492C0.541878 79.9492 -0.0165485 79.4754 0.000373495 78.6462C0.0172955 77.8171 0.575722 77.3771 1.64181 77.3432C2.33561 77.3263 3.33401 77.5463 3.65553 77.174C4.02781 76.7341 3.85859 75.8033 3.85859 75.0757C3.85859 63.0272 3.85859 50.9957 3.85859 38.9472C3.85859 37.1535 4.18011 36.8489 5.99076 36.8489C13.8257 36.8489 21.6605 36.8489 29.5124 36.8489C29.8508 36.8658 30.1723 36.8658 30.5954 36.8658ZM48.4481 3.2249C48.4312 3.61411 48.4142 3.83409 48.4142 4.071C48.4142 28.2018 48.4142 52.3325 48.3973 76.4802C48.3973 77.1909 48.6173 77.3771 49.3111 77.3771C53.7447 77.3432 58.1613 77.3432 62.5949 77.3771C63.3902 77.3771 63.5764 77.1402 63.5764 76.3787C63.5594 54.4139 63.5594 32.4492 63.5764 10.4844C63.5764 9.82448 63.3902 9.48604 62.7641 9.21529C59.4305 7.84461 56.1137 6.44008 52.7801 5.05248C51.3756 4.46021 49.9711 3.86794 48.4481 3.2249ZM45.7236 77.3432C45.7236 52.5694 45.7236 27.9141 45.7236 3.2249C45.5544 3.27567 45.4529 3.29259 45.3513 3.34336C41.5947 4.81557 37.8549 6.3047 34.0982 7.74307C33.3875 8.01383 33.2014 8.36919 33.2014 9.09683C33.2352 18.9962 33.2183 28.8786 33.2183 38.778C33.2183 51.3511 33.2183 63.9241 33.2014 76.4971C33.2014 77.174 33.4044 77.3602 34.0644 77.3602C36.2642 77.3263 38.4641 77.3432 40.664 77.3432C42.3392 77.3432 43.9976 77.3432 45.7236 77.3432ZM30.5954 77.3094C30.5954 76.954 30.5954 76.6664 30.5954 76.3956C30.5954 64.4148 30.5954 52.4341 30.6123 40.4364C30.6123 39.6749 30.4261 39.438 29.6308 39.438C22.2359 39.4718 14.8579 39.4549 7.46298 39.4549C7.15838 39.4549 6.87071 39.4549 6.54919 39.4549C6.54919 52.1295 6.54919 64.7025 6.54919 77.2925C14.5702 77.3094 22.5066 77.3094 30.5954 77.3094ZM84.492 77.3432C84.5258 77.0556 84.5596 76.8864 84.5596 76.7341C84.5596 63.9579 84.5596 51.1818 84.5427 38.4057C84.5427 38.0842 84.2381 37.6273 83.9504 37.4412C80.8029 35.5628 77.6216 33.7353 74.4572 31.9077C74.2034 31.7554 73.9326 31.6369 73.5265 31.4169C73.5265 31.9415 73.5265 32.2969 73.5265 32.6522C73.5265 47.1206 73.5265 61.5889 73.5265 76.0572C73.5265 76.1926 73.5434 76.3448 73.5265 76.4802C73.4419 77.1233 73.6788 77.394 74.3726 77.3602C75.5571 77.3094 76.7417 77.3432 77.9262 77.3432C80.0753 77.3432 82.2413 77.3432 84.492 77.3432ZM66.1485 30.4185C66.1485 30.8924 66.1485 31.2308 66.1485 31.5692C66.1485 46.4437 66.1485 61.335 66.1485 76.2095C66.1485 76.3787 66.1654 76.5479 66.1485 76.7171C66.1146 77.1909 66.3177 77.3602 66.7915 77.3602C67.773 77.3432 68.7714 77.3602 69.7529 77.3602C70.8867 77.3602 70.8867 77.3602 70.8867 76.1926C70.8867 61.3181 70.8867 46.4268 70.8867 31.5523C70.8867 31.3323 70.9374 31.0785 70.8697 30.8754C70.7851 30.6893 70.5821 30.4355 70.4128 30.4355C69.0422 30.4016 67.6715 30.4185 66.1485 30.4185Z" fill="#D5362B"/>
<path d="M57.1649 60.6066C57.1649 61.0635 57.1988 61.5204 57.148 61.9604C57.0634 62.688 56.5219 63.1619 55.845 63.1449C55.1681 63.128 54.6266 62.6204 54.5928 61.9096C54.5589 61.0635 54.5589 60.2174 54.5928 59.3713C54.6266 58.6606 55.1512 58.136 55.8112 58.1022C56.505 58.0683 57.0803 58.576 57.1649 59.3375C57.1988 59.7605 57.1649 60.1836 57.1649 60.6066Z" fill="#D5362B"/>
<path d="M54.5902 70.3398C54.5902 69.9168 54.5564 69.4937 54.5902 69.0876C54.6579 68.3769 55.1825 67.8692 55.8594 67.8862C56.5701 67.9031 57.0778 68.2754 57.1285 68.9861C57.1962 69.9337 57.1962 70.8983 57.1285 71.829C57.0778 72.5397 56.5363 72.8951 55.8594 72.912C55.1994 72.9289 54.6579 72.3874 54.6072 71.6936C54.5564 71.2367 54.5902 70.7967 54.5902 70.3398Z" fill="#D5362B"/>
<path d="M52.7476 49.2711C52.7476 49.6941 52.7814 50.1172 52.7476 50.5402C52.6968 51.251 52.2738 51.6909 51.5631 51.7417C50.8354 51.7925 50.3108 51.4033 50.2431 50.7264C50.1416 49.7618 50.1416 48.7634 50.2431 47.7819C50.3108 47.0712 50.8523 46.6989 51.5631 46.7497C52.2569 46.8005 52.7138 47.2066 52.7645 47.9342C52.7814 48.3573 52.7476 48.8142 52.7476 49.2711Z" fill="#D5362B"/>
<path d="M54.5727 50.8593C54.5727 50.4363 54.5388 50.0132 54.5727 49.5902C54.6234 48.8795 55.1649 48.338 55.8249 48.3549C56.5356 48.3718 57.0602 48.7272 57.111 49.4548C57.1786 50.4024 57.1786 51.367 57.094 52.3146C57.0264 53.0253 56.4848 53.4146 55.791 53.3807C55.0972 53.3469 54.6403 52.9238 54.5727 52.2131C54.5388 51.7731 54.5896 51.3162 54.5727 50.8593Z" fill="#D5362B"/>
<path d="M52.7463 20.0311C52.7463 20.4541 52.7802 20.8772 52.7463 21.3002C52.6955 22.0279 52.2386 22.434 51.5448 22.4848C50.8341 22.5355 50.2926 22.1463 50.2249 21.4356C50.1403 20.488 50.1403 19.5234 50.208 18.5758C50.2588 17.8482 50.8849 17.3913 51.5618 17.4759C52.2725 17.5605 52.6786 17.9666 52.7294 18.6943C52.7801 19.1173 52.7632 19.5742 52.7463 20.0311Z" fill="#D5362B"/>
<path d="M54.5935 41.1447C54.5935 40.6709 54.5427 40.1802 54.6104 39.7233C54.695 39.0126 55.1857 38.6234 55.8795 38.6064C56.5226 38.6064 57.0641 38.9449 57.1148 39.6218C57.1995 40.5863 57.1995 41.5847 57.1318 42.5493C57.081 43.2431 56.5564 43.6323 55.8457 43.6154C55.135 43.5984 54.695 43.1754 54.6104 42.4816C54.5427 42.0585 54.5935 41.6016 54.5935 41.1447Z" fill="#D5362B"/>
<path d="M61.5448 42.7887C61.5448 43.2455 61.5956 43.7024 61.5279 44.1424C61.4263 44.8362 61.0202 45.2593 60.2926 45.31C59.6326 45.3608 59.0234 44.8531 58.9726 44.1424C58.9219 43.2455 58.9219 42.3318 58.9726 41.4349C59.0234 40.7242 59.6157 40.2334 60.2926 40.2673C61.0033 40.318 61.4433 40.7242 61.5279 41.4349C61.5956 41.8749 61.5448 42.3318 61.5448 42.7887Z" fill="#D5362B"/>
<path d="M61.5435 13.566C61.5435 13.989 61.5773 14.4121 61.5435 14.8351C61.4758 15.5628 60.9512 16.0535 60.2743 16.0535C59.5975 16.0535 59.0221 15.5797 58.9883 14.852C58.9375 13.989 58.9375 13.1091 58.9883 12.2291C59.0221 11.5015 59.5805 11.0277 60.2574 11.0107C60.9343 11.0107 61.4758 11.4846 61.5435 12.2122C61.5773 12.6691 61.5435 13.1091 61.5435 13.566Z" fill="#D5362B"/>
<path d="M61.5435 62.3033C61.5435 62.7602 61.5943 63.2171 61.5266 63.6571C61.442 64.3678 61.002 64.757 60.2913 64.8078C59.6144 64.8416 59.0221 64.3509 58.9883 63.6401C58.9375 62.7433 58.9375 61.8295 58.9883 60.9326C59.039 60.2219 59.6482 59.7312 60.3251 59.7819C61.0528 59.8327 61.4589 60.2557 61.5435 60.9495C61.5943 61.4064 61.5435 61.8633 61.5435 62.3033Z" fill="#D5362B"/>
<path d="M61.5448 33.0605C61.5448 33.4836 61.5786 33.9066 61.5448 34.3297C61.4771 35.0742 60.9694 35.548 60.2756 35.548C59.5818 35.548 59.0234 35.0911 58.9726 34.3635C58.9219 33.5005 58.9219 32.6205 58.9726 31.7406C59.0065 31.0129 59.5649 30.5222 60.2418 30.5053C60.9356 30.4884 61.494 31.0129 61.5448 31.7914C61.5786 32.2144 61.5617 32.6375 61.5448 33.0605C61.5617 33.0605 61.5617 33.0605 61.5448 33.0605Z" fill="#D5362B"/>
<path d="M61.5448 72.1018C61.5448 72.5248 61.5786 72.9479 61.5448 73.3709C61.4602 74.0986 60.9356 74.5724 60.2418 74.5554C59.5649 74.5385 59.0234 74.0647 58.9726 73.3201C58.9219 72.474 58.9219 71.6279 58.9726 70.7818C59.0065 70.0034 59.548 69.5127 60.2756 69.5127C61.0033 69.5127 61.494 70.0034 61.5448 70.8157C61.5786 71.2557 61.5617 71.6787 61.5448 72.1018Z" fill="#D5362B"/>
<path d="M52.744 68.7846C52.744 69.2076 52.7779 69.6307 52.744 70.0537C52.6932 70.7814 52.2533 71.2044 51.5426 71.2383C50.8318 71.289 50.2903 70.8998 50.2226 70.1891C50.138 69.2076 50.138 68.2092 50.2226 67.2447C50.2903 66.5509 50.8318 66.1617 51.5426 66.2124C52.2364 66.2632 52.6763 66.7032 52.7271 67.4308C52.7779 67.8708 52.744 68.3277 52.744 68.7846Z" fill="#D5362B"/>
<path d="M54.5902 11.8712C54.5902 11.4143 54.5564 10.9744 54.5902 10.5175C54.6579 9.78981 55.1148 9.38369 55.8255 9.36676C56.5363 9.34984 57.0609 9.72212 57.1285 10.4328C57.1962 11.3805 57.1962 12.345 57.1285 13.2927C57.0778 14.0034 56.5363 14.3926 55.8425 14.3587C55.1487 14.3418 54.6748 13.9188 54.6072 13.2081C54.5564 12.785 54.5902 12.3281 54.5902 11.8712Z" fill="#D5362B"/>
<path d="M54.5727 21.5156C54.5727 21.1264 54.5388 20.7203 54.5727 20.3311C54.6234 19.6035 55.148 19.0958 55.8249 19.1127C56.5356 19.1127 57.0433 19.5019 57.111 20.1957C57.1786 21.1434 57.1786 22.1079 57.111 23.0555C57.0602 23.7832 56.5018 24.1385 55.808 24.1047C55.1142 24.0709 54.6573 23.6647 54.5896 22.9371C54.5557 22.4802 54.5896 22.0064 54.5727 21.5156Z" fill="#D5362B"/>
<path d="M52.7616 39.4723C52.7616 39.8954 52.7954 40.3184 52.7616 40.7415C52.7108 41.503 52.2201 41.9598 51.5263 41.9768C50.7817 41.9937 50.3079 41.5876 50.2402 40.8938C50.1556 39.9461 50.1556 38.9816 50.2402 38.0339C50.3079 37.3232 50.8156 36.934 51.5432 36.9679C52.2539 37.0017 52.6939 37.3909 52.7616 38.1186C52.7785 38.5754 52.7447 39.0323 52.7616 39.4723C52.7447 39.4723 52.7447 39.4723 52.7616 39.4723Z" fill="#D5362B"/>
<path d="M52.7463 29.6886C52.7463 30.1455 52.7802 30.5854 52.7463 31.0423C52.6955 31.77 52.2725 32.1761 51.5448 32.2269C50.8172 32.2607 50.2926 31.8884 50.2249 31.1777C50.1403 30.2301 50.1403 29.2655 50.208 28.3179C50.2588 27.5903 50.868 27.1672 51.5618 27.218C52.2894 27.2857 52.6786 27.7087 52.7294 28.4194C52.7801 28.8425 52.7632 29.2655 52.7463 29.6886Z" fill="#D5362B"/>
<path d="M54.5913 31.3838C54.5913 30.927 54.5575 30.487 54.5913 30.0301C54.659 29.3194 55.099 28.8963 55.8097 28.8625C56.5204 28.8286 57.045 29.2009 57.1127 29.9286C57.1973 30.8762 57.1973 31.8407 57.1127 32.7884C57.0619 33.4991 56.5543 33.8714 55.8266 33.8714C55.1328 33.8714 54.6252 33.3976 54.5744 32.653C54.5575 32.2299 54.5744 31.8069 54.5913 31.3838Z" fill="#D5362B"/>
<path d="M58.9775 23.2402C58.9775 22.8172 58.9437 22.3941 58.9775 21.9711C59.0452 21.2434 59.5867 20.7696 60.2636 20.7527C60.9405 20.7527 61.4989 21.2265 61.5497 21.9541C61.6005 22.8172 61.6005 23.6971 61.5497 24.5771C61.5159 25.3216 60.9743 25.7785 60.2805 25.7785C59.5529 25.7785 59.0452 25.3047 58.9775 24.5094C58.9437 24.0863 58.9606 23.6633 58.9775 23.2402Z" fill="#D5362B"/>
<path d="M61.5646 52.4849C61.5646 52.908 61.5816 53.331 61.5646 53.7541C61.5139 54.5156 60.9724 55.0571 60.2786 55.074C59.5848 55.074 59.0094 54.5494 58.9756 53.7879C58.9417 52.9418 58.9417 52.0957 58.9756 51.2496C59.0094 50.522 59.5678 50.0482 60.2447 50.0312C60.9216 50.0312 61.4631 50.5051 61.5308 51.2158C61.5816 51.6388 61.5477 52.0619 61.5646 52.4849Z" fill="#D5362B"/>
<path d="M52.747 58.9674C52.747 59.4243 52.7808 59.8643 52.747 60.3212C52.6793 61.0488 52.2562 61.455 51.5455 61.4888C50.8179 61.5226 50.3102 61.1334 50.2425 60.4396C50.1579 59.492 50.1579 58.5275 50.2256 57.5798C50.2764 56.886 50.784 56.4968 51.5117 56.4799C52.1885 56.463 52.7131 56.9875 52.7639 57.7152C52.7808 58.1213 52.7639 58.5444 52.747 58.9674Z" fill="#D5362B"/>
<path d="M52.7505 10.2304C52.7505 10.6873 52.7844 11.1272 52.7505 11.5841C52.6828 12.261 52.2598 12.6671 51.5998 12.7179C50.8891 12.7687 50.3307 12.4133 50.263 11.7195C50.1614 10.755 50.1614 9.75655 50.2461 8.77508C50.3137 8.08128 50.8214 7.69207 51.5491 7.72592C52.2598 7.75976 52.6997 8.16589 52.7505 8.89353C52.7844 9.3335 52.7505 9.77348 52.7505 10.2304Z" fill="#D5362B"/>
<path d="M41.2055 70.1472C41.2055 69.7241 41.1716 69.3011 41.2055 68.878C41.2732 68.1335 41.7808 67.6766 42.4746 67.6596C43.1853 67.6427 43.7269 68.0996 43.7607 68.8442C43.8115 69.741 43.8115 70.6548 43.7607 71.5517C43.7099 72.2793 43.2192 72.6516 42.5254 72.7024C41.8654 72.7532 41.2901 72.2286 41.2224 71.5179C41.1886 71.061 41.2224 70.6041 41.2055 70.1472Z" fill="#D5362B"/>
<path d="M41.2241 50.5751C41.2241 50.1182 41.1733 49.6613 41.241 49.2213C41.3256 48.5106 41.7994 48.1045 42.4932 48.1045C43.187 48.1045 43.7116 48.4768 43.7624 49.2044C43.8301 50.1351 43.8301 51.0658 43.7624 51.9966C43.7116 52.7242 43.204 53.0796 42.5102 53.1303C41.8502 53.1642 41.2748 52.6396 41.2241 51.9458C41.1733 51.472 41.2072 51.0151 41.2241 50.5751Z" fill="#D5362B"/>
<path d="M37.8374 71.7378C37.8374 72.1947 37.8882 72.6516 37.8205 73.0916C37.719 73.8023 37.2621 74.2085 36.5514 74.2085C35.8406 74.2085 35.3499 73.7854 35.2822 73.0916C35.2145 72.1609 35.2145 71.2302 35.2822 70.2995C35.333 69.6057 35.8068 69.1826 36.5514 69.1826C37.279 69.1826 37.719 69.6057 37.8205 70.2995C37.9051 70.7564 37.8374 71.2471 37.8374 71.7378Z" fill="#D5362B"/>
<path d="M41.2263 60.3496C41.2263 59.8927 41.1755 59.4358 41.2432 58.9958C41.3447 58.302 41.7678 57.879 42.4954 57.8621C43.2062 57.8621 43.7138 58.2513 43.7646 58.962C43.8323 59.9096 43.8323 60.8742 43.7646 61.8218C43.7138 62.5156 43.1892 62.8541 42.5293 62.871C41.8355 62.871 41.3447 62.4987 41.2432 61.771C41.1755 61.3141 41.2263 60.8403 41.2263 60.3496Z" fill="#D5362B"/>
<path d="M37.856 61.9101C37.856 62.367 37.9068 62.8239 37.8391 63.2639C37.7545 63.9746 37.3145 64.3807 36.5869 64.4146C35.91 64.4484 35.3177 63.9577 35.2839 63.23C35.2331 62.3332 35.2162 61.4194 35.2839 60.5225C35.3347 59.8287 35.7916 59.4057 36.5192 59.3718C37.213 59.338 37.7545 59.8118 37.8222 60.5394C37.8899 61.0133 37.856 61.4701 37.856 61.9101Z" fill="#D5362B"/>
<path d="M41.2241 40.8228C41.2241 40.3659 41.1902 39.926 41.2241 39.4691C41.2918 38.7583 41.8502 38.2676 42.5271 38.3015C43.2378 38.3353 43.7285 38.7076 43.7624 39.4352C43.8131 40.3321 43.8131 41.2459 43.7624 42.1427C43.7285 42.8704 43.1363 43.3442 42.4763 43.3273C41.7994 43.3104 41.2748 42.8196 41.2241 42.092C41.1733 41.6689 41.2072 41.2459 41.2241 40.8228C41.2072 40.8228 41.2072 40.8228 41.2241 40.8228Z" fill="#D5362B"/>
<path d="M37.8528 42.3307C37.8528 42.7876 37.9036 43.2445 37.8359 43.6845C37.7513 44.3783 37.3113 44.8013 36.6006 44.8352C35.9237 44.869 35.3314 44.3783 35.2976 43.6675C35.2468 42.7707 35.2299 41.8569 35.2976 40.96C35.3483 40.2493 35.8222 39.8601 36.5329 39.8093C37.2267 39.7755 37.7682 40.2493 37.8359 40.9769C37.8866 41.4338 37.8528 41.8907 37.8528 42.3307Z" fill="#D5362B"/>
<path d="M41.2263 11.4299C41.2263 10.973 41.1755 10.5161 41.2432 10.0762C41.3278 9.36543 41.7847 8.9593 42.4954 8.94238C43.2062 8.94238 43.7138 9.31467 43.7646 10.0423C43.8323 10.9899 43.8323 11.9545 43.7646 12.9021C43.7138 13.579 43.2062 13.9344 42.5462 13.9513C41.8355 13.9682 41.3617 13.579 41.2601 12.8683C41.1755 12.3945 41.2263 11.9037 41.2263 11.4299Z" fill="#D5362B"/>
<path d="M37.856 52.1275C37.856 52.5844 37.9068 53.0413 37.8391 53.4813C37.7545 54.192 37.2976 54.5812 36.5869 54.632C35.91 54.6658 35.3177 54.1751 35.2839 53.4644C35.2331 52.5675 35.2162 51.6537 35.2839 50.7568C35.3347 50.063 35.8085 49.64 36.5192 49.6061C37.1961 49.5723 37.7545 50.063 37.8222 50.7738C37.8899 51.2137 37.856 51.6706 37.856 52.1275Z" fill="#D5362B"/>
<path d="M37.8553 22.7498C37.8553 23.2067 37.9061 23.6636 37.8384 24.1036C37.7538 24.7974 37.3308 25.2204 36.6031 25.2543C35.9093 25.2881 35.334 24.8312 35.2832 24.1036C35.2324 23.2067 35.2324 22.2929 35.2832 21.396C35.334 20.6684 35.8924 20.2284 36.6031 20.2453C37.3477 20.2792 37.7538 20.7022 37.8384 21.396C37.8892 21.836 37.8553 22.2929 37.8553 22.7498Z" fill="#D5362B"/>
<path d="M41.2243 30.928C41.2243 30.5049 41.1735 30.0819 41.2412 29.6588C41.3258 28.9481 41.7827 28.542 42.4934 28.542C43.2041 28.542 43.7118 28.9143 43.7626 29.625C43.8303 30.5557 43.8303 31.4864 43.7626 32.4171C43.7118 33.1279 43.238 33.5171 42.5103 33.5509C41.8335 33.5847 41.3089 33.094 41.2074 32.3664C41.2074 32.3156 41.1904 32.2479 41.1904 32.1971C41.1904 31.7741 41.1904 31.351 41.1904 30.928C41.2074 30.928 41.2243 30.928 41.2243 30.928Z" fill="#D5362B"/>
<path d="M37.856 13.0039C37.856 13.427 37.8898 13.85 37.856 14.2731C37.7883 15.0176 37.2637 15.4576 36.5699 15.4576C35.8592 15.4576 35.3346 15.0007 35.3008 14.2561C35.25 13.3931 35.25 12.5132 35.3008 11.6332C35.3346 10.9056 35.893 10.4318 36.5868 10.4487C37.2806 10.4487 37.7883 10.9225 37.856 11.6501C37.8898 12.107 37.856 12.5639 37.856 13.0039Z" fill="#D5362B"/>
<path d="M41.2263 21.1758C41.2263 20.7528 41.1924 20.3297 41.2263 19.9067C41.294 19.179 41.8355 18.7052 42.5293 18.7221C43.24 18.756 43.7307 19.1282 43.7646 19.8559C43.8153 20.7866 43.8323 21.7173 43.7646 22.6311C43.7138 23.3587 43.2062 23.731 42.4954 23.7141C41.7847 23.7141 41.3278 23.2911 41.2432 22.5973C41.1755 22.1404 41.2263 21.6496 41.2263 21.1758Z" fill="#D5362B"/>
<path d="M35.268 32.5163C35.268 32.0933 35.2341 31.6702 35.268 31.2472C35.3357 30.5026 35.8264 30.0457 36.5371 30.0288C37.2478 30.0119 37.7894 30.4518 37.8401 31.1964C37.8909 32.0933 37.9078 33.0071 37.8232 33.9039C37.7724 34.5977 37.3155 35.0208 36.5879 35.0377C35.8941 35.0546 35.3526 34.5808 35.2849 33.8701C35.2341 33.4301 35.2849 32.9732 35.268 32.5163C35.2849 32.5163 35.2849 32.5163 35.268 32.5163Z" fill="#D5362B"/>
<path d="M26.0962 50.5712C25.6224 50.5712 25.1316 50.605 24.6578 50.5542C23.9471 50.4866 23.4394 49.9281 23.4733 49.2512C23.5071 48.5405 23.8963 48.0329 24.6071 47.9821C25.6393 47.9144 26.6885 47.8975 27.7207 47.9821C28.4145 48.0329 28.8037 48.5405 28.8376 49.2512C28.8545 49.9112 28.3299 50.4527 27.6192 50.5373C27.5684 50.5373 27.5007 50.5542 27.4499 50.5542C26.9931 50.5712 26.5362 50.5712 26.0962 50.5712Z" fill="#D5362B"/>
<path d="M18.5662 50.5731C18.0924 50.5731 17.6016 50.6069 17.1278 50.5731C16.3832 50.5054 15.9433 50.0654 15.8756 49.3209C15.8248 48.6778 16.3325 48.0348 17.0263 48.001C18.0416 47.9333 19.0569 47.9333 20.0553 48.001C20.766 48.0517 21.2568 48.6609 21.206 49.3209C21.1552 50.0654 20.7153 50.5054 19.9707 50.5731C19.5138 50.6069 19.04 50.5731 18.5662 50.5731Z" fill="#D5362B"/>
<path d="M11.0006 50.5735C10.5268 50.5735 10.0361 50.6073 9.56226 50.5566C8.83461 50.4889 8.3608 50.0997 8.32695 49.3213C8.27619 48.5936 8.75 48.0183 9.52841 47.9675C10.476 47.8998 11.4406 47.9167 12.3882 47.9675C13.1666 48.0013 13.6574 48.5767 13.6405 49.2874C13.6235 49.9981 13.1328 50.5058 12.3544 50.5735C11.8975 50.5904 11.4406 50.5735 11.0006 50.5735Z" fill="#D5362B"/>
<path d="M18.5965 41.8927C19.0703 41.8927 19.5611 41.8588 20.018 41.8927C20.7456 41.9604 21.2363 42.4849 21.2194 43.1618C21.2025 43.8726 20.8133 44.3633 20.1026 44.4141C19.0703 44.4817 18.0212 44.4817 16.9889 44.4141C16.2951 44.3633 15.8721 43.8726 15.8721 43.1618C15.8721 42.4173 16.312 41.9604 17.0735 41.8927C17.5812 41.8419 18.0889 41.8927 18.5965 41.8927Z" fill="#D5362B"/>
<path d="M10.9981 44.4497C10.4904 44.4497 9.98274 44.5005 9.49201 44.4328C8.74744 44.3482 8.32439 43.9082 8.34131 43.1298C8.35823 42.3514 8.7982 41.9114 9.54277 41.8945C10.5242 41.8438 11.5057 41.8438 12.4872 41.8945C13.1979 41.9284 13.621 42.3683 13.6548 43.096C13.6887 43.8575 13.2656 44.3144 12.521 44.4159C12.0134 44.4836 11.5057 44.4328 10.9981 44.4497Z" fill="#D5362B"/>
<path d="M26.1634 44.4491C25.6557 44.4491 25.1481 44.4999 24.6573 44.4322C23.9128 44.3476 23.4728 43.8907 23.4897 43.1461C23.5067 42.4015 23.9466 41.9277 24.7081 41.8939C25.6896 41.86 26.6711 41.8431 27.6525 41.9108C28.3802 41.9616 28.8878 42.5369 28.8371 43.1969C28.7863 43.8907 28.3971 44.3645 27.6864 44.4322C27.1787 44.4829 26.6711 44.4322 26.1634 44.4491C26.1634 44.4322 26.1634 44.4322 26.1634 44.4491Z" fill="#D5362B"/>
<path d="M26.1825 68.8619C25.6748 68.8619 25.1671 68.8957 24.6595 68.8619C23.9487 68.8111 23.458 68.2357 23.458 67.5758C23.458 66.9158 23.9657 66.3405 24.6764 66.3066C25.6579 66.2559 26.6393 66.2559 27.6208 66.3066C28.3315 66.3405 28.8392 66.9327 28.8223 67.5927C28.8223 68.2527 28.2977 68.8111 27.6039 68.8619C27.147 68.8957 26.6563 68.8619 26.1825 68.8619Z" fill="#D5362B"/>
<path d="M18.444 68.8619C17.9871 68.8619 17.5471 68.8957 17.0902 68.8619C16.3795 68.8111 15.8718 68.2527 15.8549 67.5927C15.838 66.9327 16.3456 66.3405 17.0394 66.3066C18.0548 66.2559 19.0701 66.2559 20.0685 66.3066C20.7792 66.3574 21.1515 66.8481 21.2023 67.5589C21.2361 68.2188 20.7284 68.7942 20.0177 68.8619C19.5101 68.8957 18.9855 68.8619 18.444 68.8619Z" fill="#D5362B"/>
<path d="M26.1148 56.6672C25.6409 56.6672 25.1502 56.701 24.6764 56.6672C23.9487 56.5995 23.458 56.058 23.458 55.398C23.458 54.7212 23.9318 54.1627 24.6595 54.1289C25.6409 54.0781 26.6224 54.0781 27.6039 54.1289C28.3654 54.1627 28.7715 54.6535 28.8223 55.3811C28.873 56.058 28.3146 56.6164 27.5531 56.6841C27.0793 56.701 26.5886 56.6672 26.1148 56.6672Z" fill="#D5362B"/>
<path d="M26.1321 72.4027C26.6059 72.4027 27.0798 72.3857 27.5705 72.4027C28.332 72.4534 28.755 72.8934 28.8227 73.621C28.8904 74.281 28.3997 74.9071 27.672 74.941C26.6736 75.0086 25.6583 75.0086 24.643 74.941C23.9153 74.9071 23.4415 74.3148 23.4584 73.638C23.4754 72.9611 23.9661 72.4365 24.6938 72.3857C25.1845 72.3857 25.6583 72.4027 26.1321 72.4027Z" fill="#D5362B"/>
<path d="M26.1431 60.184C26.6169 60.184 27.1077 60.1501 27.5815 60.184C28.326 60.2517 28.766 60.6747 28.8168 61.4193C28.8675 62.0792 28.3599 62.6884 27.6492 62.7392C26.6508 62.79 25.6354 62.79 24.6201 62.7392C23.9094 62.7054 23.4187 62.0962 23.4694 61.4193C23.5202 60.7086 23.9263 60.2686 24.637 60.184C25.1278 60.1501 25.6354 60.2009 26.1431 60.184C26.1431 60.2009 26.1431 60.2009 26.1431 60.184Z" fill="#D5362B"/>
<path d="M18.5969 72.4008C19.0538 72.4008 19.4938 72.3839 19.9507 72.4008C20.7122 72.4346 21.1352 72.8577 21.2198 73.6022C21.2875 74.2791 20.8137 74.9052 20.103 74.9391C19.0707 75.0068 18.0216 75.0068 16.9893 74.9391C16.2955 74.8883 15.8894 74.3976 15.8725 73.6699C15.8555 73.01 16.3801 72.4515 17.0739 72.4008C17.5985 72.3669 18.1062 72.4008 18.5969 72.4008Z" fill="#D5362B"/>
<path d="M18.5292 62.7736C18.0723 62.7736 17.6324 62.7905 17.1755 62.7736C16.414 62.7229 15.8725 62.1814 15.8725 61.4876C15.8555 60.7938 16.3801 60.2184 17.1416 60.1846C18.0893 60.1507 19.0538 60.1507 20.0014 60.1846C20.7291 60.2184 21.2029 60.7768 21.2198 61.4537C21.2198 62.1306 20.746 62.689 20.0353 62.7567C19.5445 62.8075 19.0369 62.7736 18.5292 62.7736Z" fill="#D5362B"/>
<path d="M18.4783 56.6665C18.0045 56.6665 17.5137 56.7004 17.0569 56.6496C16.3461 56.5819 15.8385 55.9897 15.8892 55.3297C15.94 54.6359 16.3292 54.1452 17.0399 54.1113C18.0553 54.0606 19.0537 54.0606 20.069 54.1113C20.7797 54.1452 21.2704 54.7374 21.2366 55.4143C21.1858 56.125 20.7966 56.565 20.0859 56.6496C19.5444 56.7004 19.0029 56.6496 18.4783 56.6665Z" fill="#D5362B"/>
<path d="M10.9837 72.4008C11.4575 72.4008 11.9313 72.3669 12.4052 72.4008C13.1328 72.4515 13.6235 72.9423 13.6405 73.6361C13.6574 74.3299 13.2174 74.9052 12.4898 74.956C11.4914 75.0237 10.4761 75.0237 9.46074 74.956C8.73309 74.9052 8.29312 74.3468 8.31004 73.6361C8.32696 72.9254 8.78386 72.4515 9.52843 72.4008C10.0192 72.3839 10.493 72.4008 10.9837 72.4008Z" fill="#D5362B"/>
<path d="M10.9668 68.8619C10.493 68.8619 10.0192 68.8957 9.52843 68.8619C8.78386 68.8111 8.32696 68.3034 8.31004 67.6096C8.29312 66.9158 8.73309 66.3405 9.46074 66.3066C10.4761 66.2559 11.4745 66.2559 12.4898 66.3066C13.2005 66.3574 13.5897 66.8143 13.6236 67.5419C13.6574 68.2357 13.1836 68.7772 12.4729 68.8449C11.9821 68.8957 11.4745 68.8619 10.9668 68.8619Z" fill="#D5362B"/>
<path d="M10.9853 54.1118C11.4929 54.1118 12.0006 54.0779 12.4913 54.1287C13.2021 54.1964 13.6082 54.6364 13.6251 55.364C13.642 56.0917 13.2528 56.5993 12.559 56.6501C11.4929 56.7347 10.4269 56.7347 9.36077 56.6501C8.66697 56.5993 8.27776 56.0747 8.31161 55.3471C8.34545 54.6702 8.70081 54.2302 9.3777 54.1456C9.9192 54.061 10.4607 54.1118 10.9853 54.1118Z" fill="#D5362B"/>
<path d="M10.914 62.7694C10.4571 62.7694 10.0171 62.8032 9.5602 62.7694C8.78178 62.7017 8.29104 62.1771 8.32489 61.4495C8.34181 60.6711 8.7987 60.248 9.52635 60.1973C10.474 60.1465 11.4385 60.1465 12.3862 60.1973C13.1138 60.2311 13.5876 60.6541 13.6215 61.4156C13.6722 62.1433 13.1815 62.6848 12.4031 62.7525C11.9124 62.8032 11.4047 62.7694 10.914 62.7694Z" fill="#D5362B"/>
<path d="M79.8054 66.9057C79.8054 66.6858 79.7885 66.4488 79.8054 66.2289C79.8731 65.4843 80.4146 64.9259 81.1084 64.9597C81.8529 64.9936 82.3098 65.4166 82.4114 66.1443C82.4621 66.5842 82.4621 67.0411 82.4283 67.4811C82.3775 68.2933 81.836 68.8518 81.1084 68.8518C80.3469 68.8518 79.8392 68.2933 79.8054 67.4134C79.7885 67.2442 79.8054 67.075 79.8054 66.9057Z" fill="#D5362B"/>
<path d="M82.4471 41.2352C82.4302 41.5059 82.4471 41.7936 82.3794 42.0643C82.2271 42.7412 81.7702 43.1304 81.0595 43.1304C80.3996 43.1304 79.8581 42.6058 79.8073 41.912C79.7734 41.489 79.7904 41.0659 79.7904 40.6598C79.8242 39.8137 80.3149 39.2891 81.0426 39.2553C81.7702 39.2384 82.3287 39.746 82.3963 40.5583C82.4133 40.7783 82.3963 40.9983 82.3963 41.2352C82.4302 41.2352 82.4471 41.2352 82.4471 41.2352Z" fill="#D5362B"/>
<path d="M79.8031 72.9888C79.8031 72.735 79.7692 72.4812 79.8031 72.2274C79.9046 71.5336 80.3107 71.1105 81.0214 71.0597C81.7322 71.0259 82.2229 71.3982 82.3414 72.092C82.4429 72.5996 82.426 73.1581 82.3921 73.6826C82.3414 74.4441 81.766 74.9518 81.0722 74.9349C80.3446 74.918 79.82 74.3764 79.7861 73.5642C79.7861 73.378 79.8031 73.1919 79.8031 72.9888Z" fill="#D5362B"/>
<path d="M79.809 60.4523C79.809 60.1984 79.7751 59.9446 79.809 59.6908C79.8936 58.98 80.3336 58.557 81.0274 58.5231C81.7212 58.4724 82.2288 58.8447 82.3473 59.5554C82.4319 60.08 82.4319 60.6215 82.3981 61.1461C82.3304 61.9075 81.7719 62.4321 81.0951 62.4152C80.3674 62.4152 79.8428 61.8568 79.809 61.0445C79.7921 60.8415 79.809 60.6553 79.809 60.4523Z" fill="#D5362B"/>
<path d="M79.8193 53.9717C79.8193 53.7179 79.7855 53.4641 79.8193 53.2103C79.9209 52.5503 80.327 52.1442 81.0039 52.0934C81.7146 52.0426 82.2223 52.398 82.3576 53.0918C82.4592 53.6333 82.4592 54.2087 82.4084 54.7671C82.3407 55.5116 81.7315 56.0193 81.0546 55.9855C80.3608 55.9516 79.8701 55.4101 79.8193 54.6486C79.7855 54.4286 79.8024 54.1917 79.8193 53.9717C79.8024 53.9717 79.8024 53.9717 79.8193 53.9717Z" fill="#D5362B"/>
<path d="M82.4126 47.6306C82.4126 47.8506 82.4295 48.0875 82.4126 48.3075C82.328 49.069 81.7527 49.5936 81.0758 49.5597C80.382 49.5428 79.8574 49.0013 79.8066 48.2398C79.7897 47.8506 79.7897 47.4445 79.8066 47.0553C79.8405 46.2092 80.3481 45.6846 81.0927 45.6846C81.8034 45.6846 82.328 46.1753 82.4126 46.9537C82.4465 47.1737 82.4295 47.4106 82.4126 47.6306Z" fill="#D5362B"/>
<path d="M78.0466 51.3334C78.0296 51.6211 78.0296 51.8919 77.9789 52.1795C77.8435 52.8564 77.4035 53.2118 76.7436 53.2287C76.0667 53.2287 75.6098 52.8733 75.4913 52.1965C75.4067 51.7057 75.4237 51.1811 75.4406 50.6735C75.4913 49.8443 76.0328 49.3028 76.7605 49.3197C77.4543 49.3366 77.945 49.8443 78.0127 50.6566C78.0296 50.8765 78.0127 51.1135 78.0127 51.3334C78.0296 51.3334 78.0296 51.3334 78.0466 51.3334Z" fill="#D5362B"/>
<path d="M78.0272 44.8526C78.0272 44.9373 78.0272 45.0219 78.0272 45.1065C78.0103 46.2064 77.5365 46.8325 76.7073 46.8156C75.895 46.8156 75.4381 46.1895 75.4212 45.0726C75.4212 44.768 75.4043 44.4465 75.4381 44.1419C75.5228 43.3973 75.9458 42.9574 76.6904 42.9066C77.3842 42.8558 77.9257 43.3974 77.9934 44.1758C78.0272 44.3957 78.0103 44.6327 78.0272 44.8526C78.0103 44.8526 78.0103 44.8526 78.0272 44.8526Z" fill="#D5362B"/>
<path d="M77.9924 38.3915C78.0093 39.7453 77.6201 40.3714 76.7402 40.4052C75.8433 40.4221 75.4033 39.7622 75.4033 38.3746C75.4033 38.1546 75.4033 37.9177 75.4202 37.6977C75.5218 36.9531 76.0294 36.4962 76.7232 36.5131C77.417 36.5301 77.8909 36.987 77.9755 37.7315C78.0262 37.9346 77.9924 38.1715 77.9924 38.3915Z" fill="#D5362B"/>
<path d="M78.0272 64.1586C78.0103 64.4124 78.0103 64.6663 77.9934 64.9201C77.9088 65.6308 77.4857 66.02 76.7581 66.0708C76.0643 66.1046 75.5228 65.6647 75.4551 64.9201C75.4043 64.4294 75.4043 63.9048 75.4551 63.414C75.5228 62.6695 75.9627 62.2295 76.7242 62.2295C77.4857 62.2295 77.9088 62.6695 77.9934 63.414C78.0272 63.6679 77.9934 63.9217 77.9934 64.1755C78.0103 64.1586 78.0272 64.1586 78.0272 64.1586Z" fill="#D5362B"/>
<path d="M78.0441 57.7491C78.0272 58.0368 78.0272 58.3075 77.9764 58.5952C77.858 59.2721 77.418 59.6274 76.7411 59.6443C76.0642 59.6613 75.5904 59.3059 75.4889 58.6459C75.4043 58.1214 75.4043 57.5799 75.4381 57.0553C75.4889 56.2599 76.0135 55.7861 76.7411 55.7861C77.4688 55.8031 77.9257 56.2599 78.0103 57.0891C78.0272 57.3091 78.0103 57.546 78.0103 57.766C78.0272 57.7491 78.0272 57.7491 78.0441 57.7491Z" fill="#D5362B"/>
<path d="M78.0269 70.5909C78.0269 70.7263 78.0269 70.8786 78.0269 71.0139C77.9762 71.9785 77.4685 72.5538 76.6901 72.52C75.9455 72.4861 75.4717 71.9277 75.4379 71.0139C75.421 70.6416 75.4209 70.2863 75.4548 69.914C75.5225 69.1017 76.0132 68.6279 76.7409 68.6279C77.4685 68.6279 77.9423 69.1017 78.0269 69.914C78.0269 70.134 78.01 70.354 78.0269 70.5909C78.01 70.5909 78.01 70.5909 78.0269 70.5909Z" fill="#D5362B"/>
</svg>
