<svg width="78" height="80" viewBox="0 0 78 80" fill="none" xmlns="http://www.w3.org/2000/svg">
<path d="M74.722 60.9701C74.722 47.7898 74.722 34.8177 74.722 21.6695C74.3697 21.9417 74.1134 22.1179 73.8892 22.3261C64.3924 30.5257 54.8955 38.7254 45.4147 46.925C44.3897 47.8058 43.8612 47.8058 42.8523 46.925C33.0511 38.4691 23.25 30.0133 13.4488 21.5574C13.2887 21.4292 13.1125 21.3011 12.8723 21.1089C12.8243 21.3492 12.7922 21.5093 12.7602 21.6855C12.6161 22.4862 11.9595 23.0307 11.2708 22.9667C10.5021 22.9026 9.95759 22.198 9.98962 21.3011C10.1017 18.1302 12.4399 15.3436 15.5468 14.687C16.0433 14.5909 16.5557 14.5108 17.0522 14.5108C20.047 14.4948 23.0258 14.4948 26.0206 14.5108C27.0936 14.5108 27.7182 15.0553 27.6861 15.9201C27.6541 16.7689 27.0776 17.2493 26.0366 17.2654C23.0738 17.2814 20.1111 17.2654 17.1483 17.2654C16.0112 17.2654 15.0183 17.6177 14.1375 18.4665C15.755 19.8598 17.3084 21.205 18.8459 22.5503C26.9975 29.5969 35.1651 36.6274 43.3167 43.706C43.9573 44.2665 44.3256 44.2505 44.9502 43.706C54.319 35.5704 63.7197 27.4669 73.1045 19.3633C73.8732 18.6907 73.9212 18.4825 73.0564 17.954C72.4799 17.5857 71.7432 17.3294 71.0546 17.2974C68.7164 17.2173 66.3622 17.2654 64.008 17.2654C63.7998 17.2654 63.5756 17.2814 63.3674 17.2654C62.5186 17.2013 61.9741 16.6728 61.9581 15.9201C61.9421 15.1674 62.4866 14.6069 63.3194 14.5268C63.5596 14.5108 63.7998 14.5108 64.04 14.5108C66.17 14.5108 68.316 14.5108 70.446 14.5108C74.2415 14.5108 76.7239 16.6087 77.3484 20.3723C77.4605 21.0289 77.5086 21.7015 77.5086 22.3581C77.5246 34.8177 77.5086 47.2774 77.5086 59.753C77.5086 60.1534 77.4926 60.5537 77.4445 60.9541C77.0922 63.8368 75.3146 65.5984 72.3998 65.6465C67.0348 65.7266 61.6698 65.6785 56.3048 65.6785C55.424 65.6785 54.8314 65.086 54.8314 64.3172C54.8314 63.4845 55.456 62.94 56.449 62.94C61.4136 62.94 66.3782 62.94 71.3428 62.94C71.6311 62.94 71.9034 62.94 72.1916 62.94C72.2076 62.8759 72.2397 62.8118 72.2557 62.7478C72.0155 62.5556 71.7913 62.3474 71.551 62.1712C65.065 57.3027 58.5789 52.4181 52.0929 47.5496C51.2121 46.893 51.0039 46.1403 51.5164 45.4356C52.0288 44.747 52.8456 44.6829 53.7104 45.3235C59.2676 49.4874 64.8087 53.6513 70.3499 57.8152C71.551 58.712 72.7361 59.6089 73.9373 60.5057C74.1615 60.6338 74.3537 60.7459 74.722 60.9701Z" fill="#D5362B"/>
<path d="M21.8725 38.5009C21.7604 40.807 20.6394 42.4886 18.8777 43.7858C17.8848 44.5065 16.8598 45.1791 15.7868 45.7717C15.2584 46.0599 15.0662 46.4123 15.0662 46.9728C15.0181 49.1989 15.8189 51.1687 16.9559 52.9944C19.4222 56.9501 22.6573 60.1691 26.5008 62.7795C28.0863 63.8525 29.7999 64.6533 31.7057 64.9415C31.8338 64.9576 31.9619 64.9896 32.1061 65.0056C33.7396 65.1657 33.7876 65.0857 34.6204 63.6924C35.229 62.6674 35.9016 61.6585 36.6863 60.7456C38.9925 58.0551 41.9392 57.5106 45.1102 59.1281C48.2651 60.7296 50.6033 63.26 52.4771 66.1907C53.2298 67.3598 53.7262 68.7211 54.1106 70.0663C54.559 71.6678 54.0465 73.1412 52.8614 74.3103C49.8186 77.273 46.1832 79.1468 42.0193 79.9635C41.4908 80.0596 40.8983 79.9475 40.3698 79.8194C33.2591 78.1218 26.8051 75.0149 20.9597 70.6589C10.6941 62.9877 3.77564 52.9784 0.284385 40.6309C-0.0999732 39.2696 -0.0999732 37.9884 0.316415 36.6431C1.32536 33.3441 2.89482 30.4133 5.20097 27.8189C6.91457 25.8811 9.01253 25.4007 11.2866 26.3295C15.8669 28.1873 19.2941 31.3742 21.264 35.9545C21.5843 36.7392 21.6643 37.6521 21.8725 38.5009ZM32.9709 67.8242C30.5686 67.7281 28.4707 67.0555 26.5008 65.9825C23.49 64.349 20.9437 62.1069 18.6055 59.6406C16.5075 57.4145 14.6498 55.0123 13.4166 52.1936C12.5038 50.0957 12.0233 47.9497 12.4557 45.6435C12.6319 44.6666 13.0803 43.994 14.0572 43.5296C15.1783 43.0011 16.2513 42.3124 17.2282 41.5437C19.198 40.0063 19.5984 38.3888 18.3492 36.2107C17.5165 34.7534 16.4114 33.4081 15.2423 32.175C13.9451 30.7977 12.3917 29.6766 10.598 28.972C9.02854 28.3634 8.29185 28.5076 7.17081 29.7407C5.13691 31.9668 3.75963 34.5612 2.94286 37.4599C2.71866 38.2606 2.70264 38.9973 2.91084 39.7981C5.18496 48.302 9.44493 55.7169 15.4505 62.1069C22.385 69.4577 30.7448 74.4544 40.5139 77.0328C41.0744 77.1769 41.7471 77.241 42.3076 77.0969C45.4305 76.2961 48.2171 74.8388 50.6193 72.6607C51.4201 71.9401 51.6443 71.1073 51.324 70.1464C51.0998 69.4417 50.8596 68.673 50.4271 68.1125C49.1299 66.463 47.8167 64.8134 46.3273 63.34C45.4785 62.5073 44.3575 61.8827 43.2525 61.3862C41.5549 60.6175 40.1135 60.9698 38.9444 62.3952C38.0476 63.5002 37.2308 64.7173 36.5902 65.9825C36.1098 66.9274 35.4852 67.4399 34.5083 67.632C33.9478 67.7281 33.3873 67.7762 32.9709 67.8242Z" fill="#D5362B"/>
<path d="M49.9306 21.6534C48.4893 22.9827 46.8237 23.5592 44.934 23.5272C42.5958 23.4951 40.8021 22.4702 39.6971 20.4363C38.3678 17.986 37.9835 15.3756 38.9924 12.7171C40.6259 8.34501 45.9269 6.93569 49.5943 9.83439C50.5392 10.5871 51.2118 11.532 51.42 12.7491C51.5642 13.5659 51.1798 14.1584 50.4431 14.3506C49.7545 14.5428 49.0498 14.1905 48.8096 13.4378C48.3291 11.9003 47.144 11.3878 45.7187 11.1796C44.1973 10.9554 42.9801 11.4519 42.0833 12.6851C40.7701 14.4947 41.0423 18.1942 42.6118 19.7957C43.7809 20.9808 45.1902 20.9648 46.6316 20.5003C47.9448 20.084 48.5854 19.107 48.7295 17.7618C48.8256 16.7368 49.3221 16.2404 50.1388 16.2564C50.9716 16.2724 51.372 16.7689 51.5161 17.8098C51.5962 18.3864 51.6763 18.9949 51.9325 19.5074C52.7172 21.0929 54.8152 21.237 55.7921 19.7637C56.1765 19.2031 56.4647 18.5305 56.6249 17.8739C57.2334 15.3916 57.2174 12.8932 56.6249 10.4269C56.0003 7.84854 54.3988 5.94276 52.1247 4.64555C48.8416 2.75579 45.3183 2.2273 41.6829 3.14015C37.5671 4.16511 34.7645 6.75953 33.5634 10.8594C32.2982 15.1514 32.4743 19.3793 34.8766 23.2869C37.0866 26.8743 40.4498 28.716 44.6137 29.0523C46.6796 29.2285 48.7135 29.0363 50.6993 28.3637C52.1407 27.8672 53.4059 27.1145 54.4468 25.9935C55.1835 25.1927 55.9683 25.1126 56.5928 25.7212C57.2014 26.2978 57.1694 27.0825 56.4647 27.8512C54.5109 29.9972 52.0286 31.1343 49.21 31.5667C45.4625 32.1592 41.8111 31.935 38.3839 30.1253C33.6915 27.643 31.065 23.7193 30.2803 18.5305C29.8479 15.7119 30.008 12.8772 30.8729 10.1387C32.8587 3.78075 38.2718 -0.0788525 44.998 0.00122217C47.9608 0.033252 50.7794 0.64182 53.3418 2.16324C56.9612 4.30924 59.1873 7.38411 59.6037 11.6601C59.8439 14.0623 59.9239 16.4806 59.1873 18.8028C58.8349 19.8918 58.2904 20.9968 57.5698 21.8776C55.8241 23.9756 52.6692 24.0877 50.6193 22.278C50.4111 22.0858 50.2029 21.8936 49.9306 21.6534Z" fill="#D5362B"/>
<path d="M37.167 46.1724C36.8306 46.6529 36.6545 47.1013 36.3342 47.3575C32.3945 50.4964 28.4388 53.6194 24.4671 56.7263C23.7304 57.3028 22.9137 57.2387 22.4012 56.5981C21.8887 55.9575 22.0008 55.1568 22.7535 54.5803C26.6772 51.4734 30.6169 48.3665 34.5565 45.2756C35.053 44.8752 35.6295 44.667 36.174 45.0354C36.5584 45.2756 36.7986 45.74 37.167 46.1724Z" fill="#D5362B"/>
</svg>
